<svg xmlns="http://www.w3.org/2000/svg" xmlns:xlink="http://www.w3.org/1999/xlink" width="800" zoomAndPan="magnify" viewBox="0 0 600 599.999999" height="800" preserveAspectRatio="xMidYMid meet" version="1.0"><defs><clipPath id="c1644bdcd0"><path d="M 157.53125 471 L 442.53125 471 L 442.53125 597 L 157.53125 597 Z M 157.53125 471 " clip-rule="nonzero"/></clipPath></defs><path fill="#000000" d="M 378.519531 225.234375 C 377.089844 224.058594 375.636719 222.914062 374.15625 221.804688 C 372.675781 220.695312 371.171875 219.617188 369.640625 218.578125 C 368.113281 217.535156 366.5625 216.527344 364.988281 215.554688 C 363.414062 214.582031 361.820312 213.644531 360.203125 212.742188 C 358.585938 211.84375 356.953125 210.976562 355.296875 210.148438 C 353.640625 209.324219 351.96875 208.53125 350.277344 207.78125 C 348.589844 207.027344 346.882812 206.3125 345.160156 205.636719 C 343.4375 204.960938 341.699219 204.328125 339.949219 203.730469 C 338.199219 203.132812 336.433594 202.574219 334.660156 202.054688 C 332.882812 201.535156 331.097656 201.058594 329.296875 200.621094 C 327.5 200.183594 325.695312 199.785156 323.878906 199.429688 C 322.0625 199.070312 320.242188 198.757812 318.410156 198.480469 C 316.582031 198.207031 314.746094 197.972656 312.90625 197.78125 C 311.066406 197.589844 309.222656 197.4375 307.375 197.328125 C 305.53125 197.21875 303.679688 197.152344 301.832031 197.125 C 299.980469 197.097656 298.132812 197.113281 296.28125 197.171875 C 294.433594 197.226562 292.585938 197.324219 290.742188 197.464844 C 288.898438 197.605469 287.054688 197.789062 285.21875 198.011719 C 283.382812 198.234375 281.550781 198.496094 279.726562 198.800781 C 277.902344 199.105469 276.085938 199.453125 274.277344 199.839844 C 272.464844 200.226562 270.667969 200.652344 268.878906 201.121094 C 267.085938 201.585938 265.308594 202.09375 263.539062 202.640625 C 261.773438 203.191406 260.019531 203.777344 258.277344 204.402344 C 256.539062 205.03125 254.8125 205.695312 253.101562 206.398438 C 251.390625 207.101562 249.695312 207.84375 248.019531 208.625 C 246.339844 209.40625 244.679688 210.222656 243.039062 211.078125 C 241.398438 211.933594 239.777344 212.824219 238.175781 213.75 C 236.574219 214.679688 234.996094 215.640625 233.4375 216.640625 C 231.882812 217.636719 230.347656 218.671875 228.835938 219.738281 C 227.324219 220.808594 225.835938 221.90625 224.375 223.042969 C 222.914062 224.175781 221.480469 225.34375 220.070312 226.542969 C 218.660156 227.742188 217.277344 228.972656 215.925781 230.230469 C 214.570312 231.492188 213.246094 232.785156 211.949219 234.105469 C 210.652344 235.425781 209.386719 236.773438 208.152344 238.152344 C 206.914062 239.53125 205.710938 240.933594 204.539062 242.367188 C 203.367188 243.796875 202.226562 245.253906 201.121094 246.738281 C 200.011719 248.222656 198.941406 249.726562 197.902344 251.257812 C 196.863281 252.789062 195.859375 254.34375 194.886719 255.921875 C 193.917969 257.496094 192.984375 259.09375 192.085938 260.710938 C 191.191406 262.332031 190.328125 263.96875 189.503906 265.625 C 188.679688 267.28125 187.894531 268.957031 187.144531 270.648438 C 186.394531 272.339844 185.6875 274.050781 185.015625 275.773438 C 184.339844 277.5 183.707031 279.238281 183.113281 280.988281 C 182.519531 282.742188 181.964844 284.507812 181.453125 286.285156 C 180.9375 288.0625 180.460938 289.851562 180.027344 291.648438 C 179.59375 293.449219 179.199219 295.257812 178.847656 297.074219 C 178.492188 298.890625 178.179688 300.714844 177.910156 302.542969 C 177.640625 304.375 177.410156 306.210938 177.21875 308.050781 C 177.03125 309.894531 176.882812 311.738281 176.777344 313.585938 C 176.671875 315.433594 176.609375 317.28125 176.585938 319.132812 C 176.5625 320.984375 176.582031 322.832031 176.640625 324.683594 C 176.703125 326.53125 176.804688 328.378906 176.949219 330.226562 C 177.089844 332.070312 177.273438 333.910156 177.5 335.75 C 177.726562 337.585938 177.996094 339.417969 178.304688 341.242188 C 178.609375 343.066406 178.960938 344.882812 179.351562 346.691406 C 179.738281 348.5 180.171875 350.300781 180.640625 352.089844 C 181.113281 353.878906 181.621094 355.660156 182.171875 357.425781 C 182.722656 359.191406 183.3125 360.945312 183.945312 362.6875 C 184.574219 364.425781 185.242188 366.152344 185.949219 367.863281 C 186.65625 369.574219 187.398438 371.265625 188.183594 372.941406 C 188.964844 374.621094 189.785156 376.277344 190.644531 377.917969 C 191.5 379.558594 192.394531 381.179688 193.324219 382.777344 C 194.257812 384.378906 195.222656 385.957031 196.222656 387.511719 C 197.222656 389.066406 198.261719 390.601562 199.328125 392.109375 L 206.019531 401.519531 C 223.992188 426.777344 242.59375 452.835938 259.046875 479.636719 C 265.792969 490.527344 272.175781 501.589844 278.371094 512.839844 L 291.671875 536.976562 C 292.074219 537.714844 292.570312 538.386719 293.152344 538.992188 C 293.734375 539.597656 294.386719 540.117188 295.109375 540.550781 C 295.828125 540.980469 296.59375 541.3125 297.402344 541.542969 C 298.210938 541.769531 299.039062 541.890625 299.878906 541.902344 L 300.03125 541.902344 C 300.859375 541.902344 301.675781 541.792969 302.480469 541.582031 C 303.28125 541.367188 304.042969 541.054688 304.761719 540.640625 C 305.484375 540.226562 306.136719 539.726562 306.726562 539.140625 C 307.316406 538.554688 307.820312 537.90625 308.238281 537.1875 L 311.03125 532.398438 C 320.1875 515.652344 330.296875 498.394531 341.90625 479.671875 C 362.425781 447.019531 384.410156 415.414062 401.320312 391.464844 C 402.417969 389.886719 403.476562 388.289062 404.5 386.664062 C 405.523438 385.035156 406.507812 383.386719 407.457031 381.71875 C 408.402344 380.046875 409.308594 378.351562 410.175781 376.640625 C 411.042969 374.925781 411.871094 373.195312 412.660156 371.441406 C 413.445312 369.6875 414.191406 367.917969 414.898438 366.132812 C 415.601562 364.347656 416.265625 362.542969 416.886719 360.726562 C 417.507812 358.910156 418.085938 357.078125 418.621094 355.230469 C 419.15625 353.386719 419.648438 351.53125 420.097656 349.664062 C 420.546875 347.796875 420.953125 345.917969 421.3125 344.03125 C 421.675781 342.144531 421.992188 340.253906 422.265625 338.351562 C 422.539062 336.449219 422.769531 334.542969 422.953125 332.632812 C 423.140625 330.71875 423.28125 328.804688 423.375 326.886719 C 423.472656 324.96875 423.523438 323.046875 423.527344 321.125 C 423.535156 319.207031 423.496094 317.285156 423.414062 315.367188 C 423.332031 313.445312 423.203125 311.53125 423.03125 309.617188 C 422.859375 307.703125 422.640625 305.796875 422.382812 303.894531 C 422.121094 301.992188 421.816406 300.09375 421.464844 298.207031 C 421.117188 296.316406 420.722656 294.4375 420.285156 292.566406 C 419.851562 290.695312 419.371094 288.835938 418.847656 286.988281 C 418.324219 285.140625 417.757812 283.304688 417.148438 281.484375 C 416.539062 279.660156 415.890625 277.855469 415.195312 276.0625 C 414.503906 274.273438 413.769531 272.496094 412.992188 270.738281 C 412.21875 268.984375 411.402344 267.246094 410.546875 265.523438 C 409.691406 263.804688 408.792969 262.109375 407.859375 260.429688 C 406.921875 258.753906 405.949219 257.097656 404.9375 255.464844 C 403.921875 253.832031 402.875 252.226562 401.785156 250.640625 C 400.699219 249.058594 399.574219 247.5 398.414062 245.972656 C 397.257812 244.441406 396.0625 242.9375 394.832031 241.460938 C 393.601562 239.984375 392.339844 238.539062 391.042969 237.125 C 389.742188 235.707031 388.414062 234.320312 387.054688 232.96875 C 385.691406 231.613281 384.300781 230.289062 382.875 229 C 381.453125 227.710938 380 226.457031 378.519531 225.234375 Z M 300.03125 379.035156 C 298.117188 379.035156 296.210938 378.941406 294.3125 378.753906 C 292.410156 378.566406 290.519531 378.285156 288.648438 377.914062 C 286.773438 377.539062 284.921875 377.074219 283.09375 376.519531 C 281.261719 375.964844 279.464844 375.324219 277.699219 374.589844 C 275.933594 373.859375 274.210938 373.042969 272.523438 372.140625 C 270.839844 371.242188 269.203125 370.257812 267.613281 369.195312 C 266.023438 368.136719 264.492188 366.996094 263.015625 365.785156 C 261.535156 364.574219 260.121094 363.289062 258.769531 361.9375 C 257.417969 360.585938 256.136719 359.171875 254.925781 357.695312 C 253.714844 356.214844 252.578125 354.683594 251.515625 353.09375 C 250.453125 351.503906 249.472656 349.867188 248.570312 348.179688 C 247.667969 346.496094 246.855469 344.769531 246.121094 343.003906 C 245.390625 341.234375 244.75 339.4375 244.195312 337.609375 C 243.640625 335.78125 243.175781 333.925781 242.800781 332.050781 C 242.429688 330.175781 242.148438 328.289062 241.960938 326.386719 C 241.773438 324.484375 241.679688 322.578125 241.679688 320.664062 C 241.679688 318.753906 241.773438 316.847656 241.960938 314.945312 C 242.148438 313.042969 242.429688 311.152344 242.800781 309.277344 C 243.175781 307.402344 243.640625 305.550781 244.195312 303.722656 C 244.75 301.890625 245.390625 300.09375 246.121094 298.328125 C 246.855469 296.5625 247.667969 294.835938 248.570312 293.148438 C 249.472656 291.464844 250.453125 289.828125 251.515625 288.238281 C 252.578125 286.648438 253.714844 285.113281 254.925781 283.636719 C 256.136719 282.160156 257.417969 280.742188 258.769531 279.390625 C 260.121094 278.039062 261.535156 276.757812 263.015625 275.546875 C 264.492188 274.332031 266.023438 273.195312 267.613281 272.132812 C 269.203125 271.070312 270.839844 270.089844 272.523438 269.1875 C 274.210938 268.289062 275.933594 267.472656 277.699219 266.738281 C 279.464844 266.007812 281.261719 265.363281 283.09375 264.808594 C 284.921875 264.253906 286.773438 263.789062 288.648438 263.417969 C 290.519531 263.046875 292.410156 262.765625 294.3125 262.578125 C 296.210938 262.390625 298.117188 262.296875 300.03125 262.296875 C 301.941406 262.296875 303.847656 262.390625 305.75 262.578125 C 307.652344 262.765625 309.539062 263.046875 311.414062 263.417969 C 313.289062 263.789062 315.140625 264.253906 316.96875 264.808594 C 318.796875 265.363281 320.59375 266.007812 322.359375 266.738281 C 324.125 267.472656 325.851562 268.289062 327.535156 269.1875 C 329.222656 270.089844 330.859375 271.070312 332.445312 272.132812 C 334.035156 273.195312 335.570312 274.332031 337.046875 275.546875 C 338.523438 276.757812 339.9375 278.039062 341.289062 279.390625 C 342.640625 280.742188 343.921875 282.160156 345.132812 283.636719 C 346.347656 285.113281 347.484375 286.648438 348.546875 288.238281 C 349.605469 289.828125 350.589844 291.464844 351.488281 293.148438 C 352.390625 294.835938 353.207031 296.5625 353.9375 298.328125 C 354.667969 300.09375 355.3125 301.890625 355.867188 303.722656 C 356.421875 305.550781 356.886719 307.402344 357.257812 309.277344 C 357.628906 311.152344 357.910156 313.042969 358.097656 314.945312 C 358.285156 316.847656 358.378906 318.753906 358.378906 320.664062 C 358.375 322.578125 358.28125 324.484375 358.089844 326.382812 C 357.902344 328.285156 357.621094 330.171875 357.246094 332.046875 C 356.871094 333.921875 356.40625 335.773438 355.847656 337.601562 C 355.292969 339.429688 354.648438 341.226562 353.917969 342.992188 C 353.183594 344.753906 352.367188 346.480469 351.46875 348.164062 C 350.566406 349.851562 349.582031 351.488281 348.523438 353.074219 C 347.460938 354.664062 346.324219 356.195312 345.109375 357.671875 C 343.898438 359.152344 342.617188 360.566406 341.265625 361.917969 C 339.914062 363.265625 338.503906 364.550781 337.027344 365.761719 C 335.550781 366.972656 334.015625 368.113281 332.429688 369.175781 C 330.839844 370.234375 329.203125 371.21875 327.519531 372.121094 C 325.835938 373.019531 324.113281 373.839844 322.347656 374.570312 C 320.582031 375.304688 318.785156 375.949219 316.960938 376.503906 C 315.132812 377.058594 313.28125 377.527344 311.40625 377.898438 C 309.535156 378.273438 307.648438 378.558594 305.746094 378.746094 C 303.847656 378.9375 301.941406 379.03125 300.03125 379.035156 Z M 300.03125 379.035156 " fill-opacity="1" fill-rule="nonzero"/><g clip-path="url(#c1644bdcd0)"><path fill="#000000" d="M 369.722656 471.558594 C 365.789062 477.601562 361.855469 483.644531 357.980469 489.785156 C 346.578125 508.183594 336.660156 525.136719 327.695312 541.539062 L 324.730469 546.84375 C 324.101562 547.914062 323.40625 548.941406 322.640625 549.925781 C 321.878906 550.90625 321.058594 551.835938 320.171875 552.710938 C 319.289062 553.585938 318.355469 554.398438 317.363281 555.152344 C 316.375 555.90625 315.339844 556.589844 314.261719 557.207031 C 313.183594 557.828125 312.070312 558.371094 310.921875 558.84375 C 309.769531 559.320312 308.59375 559.714844 307.394531 560.035156 C 306.191406 560.355469 304.976562 560.597656 303.742188 560.757812 C 302.511719 560.921875 301.273438 561 300.03125 561.003906 L 299.914062 561.003906 C 298.652344 560.992188 297.394531 560.898438 296.144531 560.722656 C 294.890625 560.546875 293.65625 560.289062 292.441406 559.953125 C 291.222656 559.613281 290.035156 559.195312 288.871094 558.699219 C 287.710938 558.203125 286.585938 557.632812 285.5 556.984375 C 284.410156 556.339844 283.371094 555.628906 282.378906 554.84375 C 281.386719 554.0625 280.449219 553.21875 279.570312 552.3125 C 278.6875 551.40625 277.871094 550.445312 277.117188 549.433594 C 276.363281 548.417969 275.679688 547.359375 275.0625 546.253906 L 261.765625 522.113281 C 255.722656 511.128906 249.507812 500.351562 242.933594 489.804688 C 239.136719 483.683594 234.992188 477.679688 231.023438 471.613281 C 186.03125 482.5625 157.53125 504.171875 157.53125 529.738281 C 157.53125 567.75 218.785156 596.257812 300.03125 596.257812 C 381.273438 596.257812 442.53125 567.75 442.53125 529.738281 C 442.53125 504.34375 414.21875 482.773438 369.722656 471.558594 Z M 369.722656 471.558594 " fill-opacity="1" fill-rule="nonzero"/></g><path fill="#000000" d="M 307.5 0 L 307.5 90 L 292.5 90 L 292.5 0 M 307.5 105 L 307.5 195 L 292.5 195 L 292.5 105 " fill-opacity="1" fill-rule="nonzero"/></svg>