<svg xmlns="http://www.w3.org/2000/svg" xmlns:xlink="http://www.w3.org/1999/xlink" width="800" zoomAndPan="magnify" viewBox="0 0 600 599.999999" height="800" preserveAspectRatio="xMidYMid meet" version="1.0"><path fill="#000000" d="M 307.5 403.5 L 307.5 493.5 L 292.5 493.5 L 292.5 403.5 M 307.5 508.5 L 307.5 598.5 L 292.5 598.5 L 292.5 508.5 " fill-opacity="1" fill-rule="nonzero"/><path fill="#000000" d="M 1.605469 241.140625 C 1.605469 237.792969 1.605469 234.921875 1.605469 232.050781 C 1.605469 229.894531 1.84375 227.742188 1.964844 224.871094 C 14.289062 225.707031 26.132812 226.546875 38.097656 227.503906 C 148.171875 236.117188 258.363281 244.730469 368.4375 253.347656 C 371.429688 253.585938 374.539062 254.660156 377.289062 256.097656 C 400.859375 267.824219 424.191406 279.789062 447.761719 291.511719 C 486.40625 310.773438 527.324219 313.40625 569.082031 306.230469 C 584.15625 303.714844 587.746094 295.582031 583.199219 278.832031 C 593.726562 282.660156 599.46875 290.4375 598.511719 301.5625 C 596.839844 319.988281 592.890625 338.414062 592.652344 356.839844 C 592.410156 377.179688 581.523438 386.511719 564.414062 391.773438 C 533.066406 401.464844 500.882812 403.5 468.460938 400.148438 C 420.003906 395.246094 373.222656 382.5625 327.519531 366.171875 C 320.21875 363.539062 314.714844 359.589844 311.484375 352.652344 C 304.90625 338.773438 298.445312 324.773438 291.984375 310.894531 C 292.460938 310.058594 293.0625 309.339844 293.539062 308.503906 C 336.730469 318.3125 380.042969 328.242188 423.234375 338.054688 C 423.355469 337.816406 423.59375 337.574219 423.710938 337.335938 C 414.378906 331.59375 404.449219 326.570312 395.835938 319.867188 C 374.539062 303.238281 349.054688 300.964844 323.929688 296.65625 C 218.640625 278.710938 113.355469 260.644531 8.066406 242.578125 C 6.273438 242.21875 4.476562 241.742188 1.605469 241.140625 Z M 497.054688 349.179688 C 497.054688 356.71875 502.199219 363.179688 507.941406 363.058594 C 513.683594 362.820312 518.589844 356.121094 518.351562 348.703125 C 518.230469 341.40625 513.445312 335.421875 507.824219 335.300781 C 501.839844 335.183594 497.054688 341.40625 497.054688 349.179688 Z M 584.035156 346.550781 C 590.855469 339.371094 591.8125 329.558594 586.429688 323.339844 C 579.371094 328.722656 578.054688 339.730469 584.035156 346.550781 Z M 584.035156 346.550781 " fill-opacity="1" fill-rule="nonzero"/><path fill="#000000" d="M 496.816406 300.128906 C 489.636719 299.167969 482.457031 299.648438 476.714844 297.015625 C 458.886719 289.121094 441.539062 280.386719 424.3125 271.292969 C 421.4375 269.738281 419.167969 265.667969 417.96875 262.320312 C 408.398438 236.355469 400.023438 209.914062 389.496094 184.3125 C 378.964844 158.945312 363.292969 137.050781 337.925781 124.011719 C 313.757812 111.566406 287.796875 109.890625 261.714844 113.71875 C 179.160156 125.925781 96.84375 138.847656 14.40625 151.527344 C 13.691406 151.648438 12.972656 151.527344 12.015625 150.691406 C 19.554688 148.535156 27.089844 146.265625 34.628906 144.347656 C 117.0625 123.53125 199.5 102.472656 282.054688 82.015625 C 299.042969 77.828125 316.628906 75.554688 333.980469 72.921875 C 368.4375 67.65625 396.671875 80.21875 419.765625 104.867188 C 442.378906 129.035156 459.605469 157.152344 470.375 188.378906 C 479.347656 214.460938 485.929688 241.382812 493.945312 269.019531 C 477.792969 269.617188 465.109375 264.832031 452.308594 259.449219 C 457.691406 270.453125 464.273438 279.90625 476.835938 283.375 C 479.824219 284.214844 482.9375 284.691406 486.046875 285.050781 C 497.175781 286.605469 497.175781 286.605469 496.816406 300.128906 Z M 496.816406 300.128906 " fill-opacity="1" fill-rule="nonzero"/><path fill="#000000" d="M 388.417969 249.757812 C 383.75 242.816406 379.324219 235.757812 374.300781 229.058594 C 360.539062 210.511719 347.257812 191.488281 332.304688 174.019531 C 325.363281 165.886719 315.316406 159.902344 305.742188 154.398438 C 295.8125 148.535156 285.402344 148.058594 272.601562 150.210938 C 272.601562 153.082031 272.601562 156.074219 272.601562 159.183594 C 272.839844 177.96875 273.199219 196.753906 273.078125 215.65625 C 273.078125 221.160156 274.996094 222.835938 280.140625 224.03125 C 301.4375 229.175781 322.613281 234.800781 343.910156 240.304688 C 345.703125 240.78125 347.378906 241.5 349.414062 242.097656 C 233.714844 234.324219 118.378906 226.546875 2.203125 218.648438 C 2.085938 217.09375 1.964844 214.941406 1.84375 212.308594 C 10.9375 212.308594 19.195312 212.308594 28.40625 212.308594 C 27.210938 196.992188 26.011719 182.277344 24.699219 166.960938 C 16.800781 166.960938 9.503906 166.960938 2.085938 166.960938 C 1.964844 166.246094 1.84375 165.644531 1.605469 164.929688 C 4.117188 164.089844 6.75 162.894531 9.382812 162.535156 C 37.378906 158.585938 65.257812 154.28125 93.253906 150.929688 C 149.488281 144.109375 205.839844 137.648438 262.074219 131.1875 C 271.40625 130.113281 280.855469 129.992188 290.1875 129.273438 C 312.441406 127.480469 330.988281 135.617188 346.183594 151.167969 C 372.863281 178.328125 383.75 212.667969 390.570312 248.679688 C 389.851562 249.039062 389.136719 249.398438 388.417969 249.757812 Z M 261.832031 149.851562 C 244.125 150.929688 227.613281 151.886719 211.464844 152.84375 C 211.464844 174.738281 211.464844 195.796875 211.464844 216.734375 C 230.726562 218.050781 249.152344 219.246094 268.054688 220.445312 C 266.140625 197.234375 263.988281 174.019531 261.832031 149.851562 Z M 205.960938 216.136719 C 204.042969 195.4375 202.25 174.738281 200.335938 153.441406 C 187.652344 154.398438 175.808594 155.238281 164.082031 156.074219 C 164.082031 176.414062 164.082031 195.796875 164.082031 216.136719 C 178.203125 216.136719 191.839844 216.136719 205.960938 216.136719 Z M 158.699219 215.058594 C 156.785156 195.675781 154.992188 176.535156 153.078125 156.792969 C 141.710938 157.628906 131.539062 158.347656 121.371094 159.066406 C 121.371094 177.96875 121.371094 196.035156 121.371094 214.941406 C 134.171875 215.058594 146.015625 215.058594 158.699219 215.058594 Z M 90.144531 161.457031 C 90.144531 179.523438 90.144531 196.632812 90.144531 214.101562 C 99.835938 214.101562 108.570312 214.101562 117.78125 214.101562 C 116.226562 195.917969 114.671875 178.210938 112.996094 159.785156 C 104.980469 160.382812 97.441406 160.980469 90.144531 161.457031 Z M 82.246094 161.9375 C 74.109375 162.65625 67.289062 163.253906 60.351562 163.851562 C 60.351562 180.480469 60.351562 196.515625 60.351562 213.265625 C 69.085938 213.265625 77.339844 213.265625 86.554688 213.265625 C 85.117188 196.394531 83.683594 179.523438 82.246094 161.9375 Z M 31.277344 212.546875 C 40.371094 212.546875 48.386719 212.546875 56.882812 212.546875 C 55.445312 196.394531 54.128906 180.722656 52.574219 164.449219 C 44.917969 164.929688 38.097656 165.40625 31.277344 165.886719 C 31.277344 181.796875 31.277344 196.753906 31.277344 212.546875 Z M 31.277344 212.546875 " fill-opacity="1" fill-rule="nonzero"/><path fill="#000000" d="M 2.324219 253.105469 C 26.613281 257.652344 50.539062 262.078125 74.351562 266.625 C 139.914062 279.070312 205.480469 291.632812 271.046875 303.835938 C 276.789062 304.914062 279.660156 306.945312 281.214844 312.808594 C 284.925781 326.925781 289.351562 340.925781 293.898438 356.359375 C 290.1875 355.402344 287.4375 354.683594 284.804688 353.96875 C 194.472656 326.6875 104.023438 299.410156 13.691406 272.128906 C 0.527344 268.183594 0.527344 268.183594 2.324219 253.105469 Z M 2.324219 253.105469 " fill-opacity="1" fill-rule="nonzero"/><path fill="#000000" d="M 74.351562 382.203125 C 99.355469 378.136719 124.480469 374.1875 151.761719 369.761719 C 104.738281 345.59375 59.515625 322.382812 14.289062 299.167969 C 14.527344 298.691406 14.648438 298.332031 14.886719 297.855469 C 97.800781 325.851562 180.714844 353.847656 263.507812 381.84375 C 263.390625 382.203125 263.390625 382.5625 263.269531 382.921875 C 200.335938 382.921875 137.402344 382.921875 74.46875 382.921875 C 74.46875 382.683594 74.46875 382.441406 74.351562 382.203125 Z M 74.351562 382.203125 " fill-opacity="1" fill-rule="nonzero"/><path fill="#000000" d="M 493.824219 239.109375 C 538.332031 250.714844 556.398438 251.074219 579.25 240.066406 C 579.25 254.902344 579.847656 269.019531 578.890625 283.136719 C 578.652344 286.726562 574.226562 291.273438 570.515625 293.066406 C 552.210938 302.28125 533.066406 303.355469 513.804688 296.296875 C 511.769531 295.582031 509.496094 293.1875 508.898438 291.035156 C 503.996094 275 499.449219 258.730469 494.78125 242.578125 C 494.421875 241.742188 494.183594 240.902344 493.824219 239.109375 Z M 493.824219 239.109375 " fill-opacity="1" fill-rule="nonzero"/><path fill="#000000" d="M 584.394531 256.335938 C 582.960938 245.6875 582.242188 234.800781 579.847656 224.273438 C 564.652344 159.425781 528.042969 113.003906 463.074219 92.78125 C 435.316406 84.167969 406.84375 77.945312 377.171875 70.167969 C 390.808594 71.484375 403.132812 72.203125 415.335938 73.757812 C 442.257812 77.109375 468.101562 84.40625 493.226562 94.695312 C 520.144531 105.824219 540.367188 124.25 554.84375 149.136719 C 571.953125 178.566406 582.003906 210.152344 584.875 244.132812 C 585.234375 248.082031 584.875 252.148438 584.875 256.21875 C 584.753906 256.21875 584.515625 256.21875 584.394531 256.335938 Z M 584.394531 256.335938 " fill-opacity="1" fill-rule="nonzero"/><path fill="#000000" d="M 179.636719 99.484375 C 185.261719 95.894531 190.40625 91.226562 196.386719 88.953125 C 221.632812 79.742188 246.996094 70.769531 272.839844 62.992188 C 282.652344 60 290.789062 67.417969 298.445312 71.84375 C 259.082031 81.65625 219.839844 91.464844 180.59375 101.277344 C 180.234375 100.679688 179.875 100.082031 179.636719 99.484375 Z M 179.636719 99.484375 " fill-opacity="1" fill-rule="nonzero"/><path fill="#000000" d="M 83.203125 126.761719 C 71.359375 130.113281 59.992188 133.34375 48.507812 136.574219 C 55.804688 128.199219 76.144531 122.335938 83.203125 126.761719 Z M 83.203125 126.761719 " fill-opacity="1" fill-rule="nonzero"/></svg>