<svg xmlns="http://www.w3.org/2000/svg" xmlns:xlink="http://www.w3.org/1999/xlink" width="800" zoomAndPan="magnify" viewBox="0 0 600 749.999995" height="1000" preserveAspectRatio="xMidYMid meet" version="1.0"><defs><clipPath id="309dcc8a8a"><path d="M 0 0 L 599.996094 0 L 599.996094 750 L 0 750 Z M 0 0 " clip-rule="nonzero"/></clipPath></defs><g clip-path="url(#309dcc8a8a)"><path fill="#ffffff" d="M 562.589844 919.839844 L 549.132812 896.542969 L 535.679688 919.839844 L 524.230469 919.839844 L 510.773438 896.542969 L 497.320312 919.839844 L 485.871094 919.839844 L 472.414062 896.542969 L 458.960938 919.839844 L 447.511719 919.839844 L 434.054688 896.542969 L 420.601562 919.839844 L 409.152344 919.839844 L 395.695312 896.542969 L 382.238281 919.839844 L 370.792969 919.839844 L 357.335938 896.542969 L 343.878906 919.839844 L 332.433594 919.839844 L 318.976562 896.542969 L 305.519531 919.839844 L 294.074219 919.839844 L 280.617188 896.542969 L 266.359375 919.839844 L 254.910156 919.839844 L 241.453125 896.542969 L 228 919.839844 L 216.550781 919.839844 L 203.09375 896.542969 L 189.636719 919.839844 L 178.191406 919.839844 L 164.734375 896.542969 L 151.277344 919.839844 L 139.832031 919.839844 L 126.375 896.542969 L 112.917969 919.839844 L 101.472656 919.839844 L 88.015625 896.542969 L 74.558594 919.839844 L 63.113281 919.839844 L 49.65625 896.542969 L 35.394531 919.839844 L 23.949219 919.839844 L 10.492188 896.542969 L 0.25 914.417969 L 0.25 645.699219 C 0.652344 645.699219 0.851562 645.699219 1.054688 645.699219 C 28.769531 645.699219 51.261719 623.207031 51.261719 595.488281 C 51.261719 567.773438 28.769531 545.28125 1.054688 545.28125 C 0.652344 545.28125 0.449219 545.28125 0.25 545.28125 L 0.25 -81.929688 L 10.492188 -64.054688 L 22.140625 -84.339844 L 37.203125 -84.339844 L 48.851562 -64.054688 L 60.703125 -84.339844 L 75.765625 -84.339844 L 87.414062 -64.054688 L 99.0625 -84.339844 L 114.125 -84.339844 L 125.773438 -64.054688 L 137.621094 -84.339844 L 152.683594 -84.339844 L 164.332031 -64.054688 L 175.980469 -84.339844 L 191.042969 -84.339844 L 202.691406 -64.054688 L 214.542969 -84.339844 L 229.605469 -84.339844 L 241.253906 -64.054688 L 253.101562 -84.339844 L 268.164062 -84.339844 L 279.8125 -64.054688 L 291.460938 -84.339844 L 306.523438 -84.339844 L 318.171875 -64.054688 L 330.023438 -84.339844 L 345.085938 -84.339844 L 356.734375 -64.054688 L 368.382812 -84.339844 L 383.445312 -84.339844 L 395.09375 -64.054688 L 406.941406 -84.339844 L 422.003906 -84.339844 L 433.652344 -64.054688 L 445.503906 -84.339844 L 460.566406 -84.339844 L 472.214844 -64.054688 L 483.863281 -84.339844 L 498.925781 -84.339844 L 510.574219 -64.054688 L 522.421875 -84.339844 L 537.484375 -84.339844 L 549.132812 -64.054688 L 560.785156 -84.339844 L 575.847656 -84.339844 L 587.695312 -64.054688 L 599.34375 -84.339844 L 599.746094 -84.339844 L 599.746094 545.078125 C 599.34375 545.078125 599.144531 545.078125 598.742188 545.078125 C 571.027344 545.078125 548.53125 567.574219 548.53125 595.289062 C 548.53125 623.003906 571.027344 645.496094 598.742188 645.496094 C 599.144531 645.496094 599.34375 645.496094 599.746094 645.496094 L 599.746094 917.429688 L 587.695312 896.542969 L 574.238281 919.839844 Z M 562.589844 919.839844 " fill-opacity="1" fill-rule="nonzero"/></g><path fill="#000000" d="M 52.5 593.710938 L 75 593.710938 L 75 597.460938 L 52.5 597.460938 M 78.75 593.710938 L 101.25 593.710938 L 101.25 597.460938 L 78.75 597.460938 M 105 593.710938 L 127.5 593.710938 L 127.5 597.460938 L 105 597.460938 M 131.25 593.710938 L 153.75 593.710938 L 153.75 597.460938 L 131.25 597.460938 M 157.5 593.710938 L 180 593.710938 L 180 597.460938 L 157.5 597.460938 M 183.75 593.710938 L 206.25 593.710938 L 206.25 597.460938 L 183.75 597.460938 M 210 593.710938 L 232.5 593.710938 L 232.5 597.460938 L 210 597.460938 M 236.25 593.710938 L 258.75 593.710938 L 258.75 597.460938 L 236.25 597.460938 M 262.5 593.710938 L 285 593.710938 L 285 597.460938 L 262.5 597.460938 M 288.75 593.710938 L 311.25 593.710938 L 311.25 597.460938 L 288.75 597.460938 M 315 593.710938 L 337.5 593.710938 L 337.5 597.460938 L 315 597.460938 M 341.25 593.710938 L 363.75 593.710938 L 363.75 597.460938 L 341.25 597.460938 M 367.5 593.710938 L 390 593.710938 L 390 597.460938 L 367.5 597.460938 M 393.75 593.710938 L 416.25 593.710938 L 416.25 597.460938 L 393.75 597.460938 M 420 593.710938 L 442.5 593.710938 L 442.5 597.460938 L 420 597.460938 M 446.25 593.710938 L 468.75 593.710938 L 468.75 597.460938 L 446.25 597.460938 M 472.5 593.710938 L 495 593.710938 L 495 597.460938 L 472.5 597.460938 M 498.75 593.710938 L 521.25 593.710938 L 521.25 597.460938 L 498.75 597.460938 M 525 593.710938 L 547.5 593.710938 L 547.5 597.460938 L 525 597.460938 " fill-opacity="1" fill-rule="nonzero"/></svg>