<svg xmlns="http://www.w3.org/2000/svg" xmlns:xlink="http://www.w3.org/1999/xlink" width="498" zoomAndPan="magnify" viewBox="0 0 373.5 373.500002" height="498" preserveAspectRatio="xMidYMid meet" version="1.0"><defs><g/><clipPath id="18e628a675"><path d="M 7.300781 11.050781 L 366.070312 11.050781 L 366.070312 253 L 7.300781 253 Z M 7.300781 11.050781 " clip-rule="nonzero"/></clipPath><clipPath id="82f1bed3e2"><path d="M 125 82 L 247 82 L 247 264.214844 L 125 264.214844 Z M 125 82 " clip-rule="nonzero"/></clipPath></defs><g clip-path="url(#18e628a675)"><path fill="#9a2f28" d="M 302.625 72.320312 C 302.625 66.898438 302.625 62.046875 302.625 57.195312 C 302.625 53.671875 305.289062 51.390625 308.710938 51.867188 C 310.996094 52.152344 312.898438 54.433594 313.183594 57.195312 C 313.183594 57.480469 313.183594 57.765625 313.183594 58.144531 C 313.183594 67.277344 313.183594 76.410156 313.183594 85.542969 C 313.183594 88.78125 311.851562 90.777344 309.09375 91.632812 C 308.523438 91.824219 307.953125 91.917969 307.285156 91.917969 C 297.585938 91.917969 287.980469 91.917969 278.277344 91.917969 C 277.230469 91.917969 276.183594 91.730469 275.234375 91.253906 C 272.855469 90.109375 271.90625 87.734375 272.476562 85.164062 C 272.953125 83.167969 275.140625 81.167969 277.707031 81.167969 C 282.367188 81.167969 287.027344 81.167969 291.59375 81.167969 C 291.972656 81.167969 292.355469 81.167969 292.449219 81.167969 C 274.664062 63.378906 256.6875 45.398438 238.710938 27.414062 C 237.09375 28.9375 235.097656 30.648438 233.195312 32.554688 C 227.109375 38.453125 221.117188 44.351562 215.03125 50.152344 C 209.132812 55.863281 203.140625 61.476562 197.148438 67.089844 C 196.863281 67.375 196.578125 67.753906 196.199219 68.132812 C 199.8125 71.179688 203.425781 74.222656 207.039062 77.363281 C 208.753906 75.839844 210.371094 74.507812 211.890625 73.082031 C 212.273438 72.699219 212.558594 72.226562 213.03125 71.941406 C 214.554688 70.988281 215.125 69.847656 215.03125 68.039062 C 214.933594 66.136719 216.359375 64.804688 218.261719 64.613281 C 219.023438 64.519531 219.785156 64.519531 220.546875 64.613281 C 221.210938 64.613281 221.878906 64.804688 222.734375 64.898438 C 222.734375 66.042969 222.734375 67.089844 222.734375 68.132812 C 222.636719 70.703125 221.117188 72.414062 218.453125 72.511719 C 217.21875 72.511719 216.363281 72.988281 215.503906 73.84375 C 213.507812 75.746094 211.511719 77.554688 209.417969 79.457031 C 215.03125 84.5 220.546875 89.351562 226.253906 94.390625 C 226.632812 94.105469 227.109375 93.917969 227.394531 93.535156 C 229.960938 91.253906 232.625 88.875 235.191406 86.496094 C 235.574219 86.117188 235.761719 85.449219 235.859375 84.972656 C 235.953125 84.59375 235.859375 84.210938 235.859375 83.832031 C 235.953125 81.644531 237.285156 80.3125 239.472656 80.21875 C 240.710938 80.121094 242.039062 80.21875 243.371094 80.21875 C 243.941406 81.738281 244.132812 83.070312 243.753906 84.5 C 243.183594 86.496094 241.851562 88.019531 239.851562 88.019531 C 238.238281 88.019531 237.191406 88.683594 236.144531 89.730469 C 233.863281 92.015625 231.386719 94.203125 228.820312 96.582031 C 234.433594 102.003906 239.949219 107.332031 245.558594 112.753906 C 248.03125 110.757812 250.601562 108.757812 253.167969 106.761719 C 253.644531 106.378906 254.121094 106 254.59375 105.617188 C 255.546875 104.953125 256.117188 104.191406 256.210938 102.859375 C 256.210938 100.765625 257.542969 98.960938 260.300781 99.054688 C 260.871094 99.054688 261.539062 98.960938 262.109375 99.054688 C 262.773438 99.148438 263.441406 99.433594 264.105469 99.625 C 264.488281 101.242188 264.390625 102.765625 263.726562 104.285156 C 263.058594 105.902344 261.824219 106.949219 260.015625 106.761719 C 258.398438 106.664062 257.164062 107.140625 255.925781 108.28125 C 253.265625 110.660156 250.503906 112.847656 247.652344 115.132812 C 251.835938 119.984375 255.164062 125.21875 257.828125 131.117188 C 259.351562 130.449219 260.777344 129.878906 262.203125 129.308594 C 265.816406 127.882812 269.527344 126.453125 273.140625 124.933594 C 273.808594 124.644531 274.28125 124.265625 274.566406 123.410156 C 275.804688 120.269531 277.898438 119.414062 281.035156 120.839844 C 283.605469 121.980469 283.699219 122.457031 282.460938 124.933594 C 281.128906 127.691406 279.132812 128.546875 276.183594 127.59375 C 275.613281 127.40625 274.851562 127.308594 274.28125 127.5 C 269.527344 129.402344 264.773438 131.496094 260.113281 133.492188 C 259.828125 133.589844 259.445312 133.875 259.066406 134.066406 C 261.0625 139.964844 262.585938 145.863281 263.058594 152.140625 C 268.671875 152.140625 274.28125 152.140625 280.085938 152.140625 C 281.226562 150.902344 282.367188 149.191406 284.746094 149.476562 C 287.027344 149.761719 287.980469 151.664062 289.5 153.28125 C 288.929688 154.042969 288.550781 154.804688 287.980469 155.375 C 285.886719 157.660156 283.605469 158.039062 281.128906 156.042969 C 280.179688 155.28125 279.230469 154.996094 277.992188 154.996094 C 273.140625 155.183594 268.292969 155.28125 263.34375 155.472656 C 263.34375 156.613281 263.34375 157.660156 263.34375 158.707031 C 263.34375 160.703125 263.34375 162.605469 263.34375 164.605469 C 263.34375 165.175781 263.25 165.839844 263.25 166.410156 C 263.15625 177.734375 262.871094 189.054688 262.871094 200.375 C 262.871094 207.703125 263.15625 215.121094 263.34375 222.636719 C 263.914062 222.066406 264.488281 221.589844 264.960938 221.117188 C 273.523438 212.742188 282.175781 204.277344 290.738281 195.90625 C 294.921875 191.8125 299.105469 187.722656 303.386719 183.632812 C 308.808594 178.398438 314.324219 173.261719 319.648438 168.027344 C 324.597656 163.175781 329.542969 158.324219 334.390625 153.472656 C 339.433594 148.527344 344.570312 143.578125 349.609375 138.632812 C 349.894531 138.347656 350.273438 138.25 350.75 137.871094 C 338.765625 125.789062 326.972656 113.894531 315.273438 102.195312 C 318.222656 99.246094 321.171875 96.296875 324.121094 93.25 C 324.40625 93.535156 324.882812 93.820312 325.261719 94.105469 C 333.632812 102.480469 342 110.945312 350.371094 119.414062 C 354.746094 123.789062 359.121094 128.261719 363.496094 132.636719 C 367.015625 135.96875 366.730469 139.964844 363.304688 143.292969 C 353.035156 153.1875 342.953125 163.175781 332.773438 173.167969 C 325.925781 179.824219 319.078125 186.582031 312.230469 193.242188 C 305.765625 199.519531 299.296875 205.894531 292.828125 212.269531 C 287.40625 217.5 281.988281 222.734375 276.660156 227.964844 C 269.242188 235.195312 261.917969 242.425781 254.5 249.65625 C 253.835938 250.324219 253.167969 250.894531 252.40625 251.65625 C 251.933594 250.703125 252.121094 249.941406 252.121094 249.179688 C 252.121094 220.925781 252.121094 192.667969 252.121094 164.507812 C 252.121094 162.796875 252.121094 161.179688 252.121094 159.464844 C 252.027344 155.851562 252.027344 152.140625 251.648438 148.527344 C 251.265625 145.480469 250.503906 142.4375 249.460938 139.582031 C 247.175781 132.828125 243.277344 126.929688 238.902344 121.410156 C 233.386719 114.371094 227.011719 108.1875 220.355469 102.289062 C 213.699219 96.390625 206.566406 90.871094 199.621094 85.257812 C 196.578125 82.785156 193.441406 80.691406 190.492188 78.125 C 188.304688 76.222656 185.546875 76.03125 183.074219 77.839844 C 179.554688 80.503906 176.035156 83.070312 172.609375 85.734375 C 166.046875 90.96875 159.390625 96.199219 153.019531 101.621094 C 148.261719 105.714844 143.699219 109.996094 139.324219 114.371094 C 134.757812 118.9375 130.476562 123.789062 127.242188 129.402344 C 124.199219 134.539062 122.109375 139.964844 121.253906 145.863281 C 120.871094 148.335938 120.679688 150.808594 120.679688 153.28125 C 120.679688 169.457031 120.679688 185.535156 120.679688 201.707031 C 120.585938 218.167969 120.394531 234.71875 120.300781 251.179688 C 120.300781 251.464844 120.300781 251.75 120.207031 252.226562 C 119.636719 251.75 119.160156 251.371094 118.777344 250.894531 C 82.636719 214.742188 46.496094 178.589844 10.355469 142.4375 C 10.070312 142.152344 9.785156 141.867188 9.5 141.675781 C 6.074219 138.535156 7.027344 134.351562 9.785156 131.6875 C 11.972656 129.6875 14.0625 127.59375 16.25 125.503906 C 22.8125 119.128906 29.375 112.847656 35.9375 106.476562 C 39.933594 102.574219 43.832031 98.671875 47.828125 94.773438 C 48.492188 94.105469 49.0625 93.25 49.921875 92.300781 C 53.058594 95.535156 56.007812 98.484375 59.050781 101.621094 C 46.972656 113.324219 34.988281 125.027344 23.003906 136.730469 C 52.203125 165.9375 81.402344 195.046875 110.695312 224.253906 C 110.695312 201.230469 110.695312 178.304688 110.695312 155.375 C 110.601562 155.28125 110.503906 155.183594 110.316406 155.183594 C 105.84375 154.996094 101.375 154.898438 96.902344 154.710938 C 95.859375 154.710938 95.097656 154.804688 94.242188 155.566406 C 91.386719 157.847656 88.25 157.089844 86.441406 153.949219 C 86.0625 153.378906 85.871094 152.808594 86.347656 152.234375 C 87.296875 151.285156 88.25 150.238281 89.390625 149.476562 C 90.816406 148.621094 92.625 148.90625 93.765625 150.144531 C 95 151.570312 96.332031 151.949219 98.140625 151.855469 C 101.753906 151.761719 105.273438 151.855469 108.886719 151.855469 C 109.554688 151.855469 110.21875 151.855469 111.171875 151.855469 C 111.265625 148.714844 111.074219 145.671875 111.359375 142.628906 C 111.644531 139.679688 112.3125 136.730469 112.882812 133.492188 C 108.222656 131.304688 103.179688 129.402344 98.234375 127.308594 C 93.480469 129.117188 91.671875 128.070312 89.867188 122.269531 C 91.007812 121.695312 92.242188 121.03125 93.480469 120.652344 C 95.761719 119.890625 97.664062 120.746094 98.519531 123.125 C 98.804688 123.886719 99.089844 124.644531 99.949219 124.933594 C 104.609375 126.835938 109.363281 128.738281 114.214844 130.640625 C 117.066406 124.359375 120.679688 118.558594 125.054688 113.132812 C 124.582031 112.753906 124.199219 112.375 123.726562 111.992188 C 121.726562 110.375 119.730469 108.664062 117.828125 107.046875 C 117.257812 106.570312 116.6875 106.191406 115.832031 106.191406 C 112.027344 106.285156 110.125 104.285156 110.027344 100.578125 C 110.027344 100.101562 110.027344 99.71875 110.027344 99.148438 C 112.027344 98.292969 113.929688 97.628906 115.925781 98.578125 C 118.019531 99.53125 118.492188 101.433594 118.113281 103.621094 C 121.0625 106 124.011719 108.28125 126.863281 110.472656 C 132.191406 105.238281 137.515625 100.195312 142.84375 94.964844 C 140.84375 93.0625 138.847656 91.253906 136.851562 89.445312 C 136.46875 89.066406 135.804688 88.96875 135.234375 88.96875 C 131.90625 88.683594 130.476562 87.257812 130.476562 83.925781 C 130.476562 83.355469 130.382812 82.882812 130.476562 82.308594 C 130.574219 81.929688 130.859375 81.359375 131.144531 81.261719 C 135.136719 80.027344 138.941406 81.738281 138.277344 86.019531 C 138.277344 86.210938 138.277344 86.496094 138.277344 86.6875 C 140.558594 88.78125 142.9375 90.871094 145.21875 92.871094 C 150.925781 87.921875 156.539062 82.976562 162.246094 77.933594 C 161.292969 76.125 159.582031 75.078125 158.34375 73.746094 C 157.964844 73.273438 157.394531 72.988281 156.917969 72.605469 C 156.253906 72.035156 155.683594 71.65625 154.636719 71.65625 C 151.117188 71.65625 149.214844 68.707031 149.976562 65.28125 C 150.070312 64.898438 150.070312 64.425781 150.261719 63.757812 C 151.78125 63.757812 153.207031 63.566406 154.636719 63.664062 C 156.539062 63.851562 157.964844 65.28125 157.871094 67.375 C 157.773438 68.894531 158.34375 69.847656 159.582031 70.796875 C 161.484375 72.320312 163.195312 74.03125 165.003906 75.746094 C 168.996094 72.511719 172.894531 69.371094 176.984375 66.136719 C 163.003906 52.914062 149.023438 39.6875 135.042969 26.464844 C 134.472656 26.941406 133.996094 27.320312 133.617188 27.699219 C 126.769531 34.359375 119.824219 41.019531 112.976562 47.773438 C 106.414062 54.148438 99.949219 60.523438 93.386719 66.898438 C 89.769531 70.417969 86.0625 73.9375 82.449219 77.554688 C 82.066406 77.933594 81.78125 78.3125 81.210938 78.886719 C 86.0625 78.886719 90.625 78.886719 95.191406 78.886719 C 96.238281 78.886719 97.285156 78.980469 98.332031 79.359375 C 100.136719 80.027344 101.375 81.261719 101.660156 83.261719 C 101.945312 85.542969 101.46875 87.542969 99.375 88.78125 C 98.617188 89.160156 97.664062 89.351562 96.808594 89.351562 C 86.632812 89.351562 76.457031 89.351562 66.183594 89.351562 C 63.234375 89.351562 61.332031 87.449219 61.332031 84.5 C 61.332031 76.125 61.332031 67.753906 61.332031 59.382812 C 61.332031 57.667969 61.429688 56.050781 61.332031 54.339844 C 61.238281 51.769531 63.519531 49.964844 65.992188 49.582031 C 68.277344 49.203125 70.84375 50.914062 71.511719 53.101562 C 71.796875 54.148438 71.890625 55.195312 71.984375 56.242188 C 71.984375 60.617188 71.984375 65.089844 71.984375 69.75 C 72.554688 69.277344 72.9375 68.992188 73.316406 68.609375 C 80.261719 61.949219 87.203125 55.195312 94.144531 48.441406 C 98.425781 44.351562 102.609375 40.070312 106.890625 35.976562 C 112.597656 30.460938 118.398438 24.941406 124.199219 19.425781 C 126.292969 17.332031 128.386719 15.238281 130.476562 13.144531 C 132.949219 10.671875 135.898438 10.671875 138.179688 11.910156 C 139.226562 12.480469 140.179688 13.335938 141.035156 14.191406 C 145.03125 17.996094 149.117188 21.800781 153.113281 25.609375 C 158.820312 31.03125 164.527344 36.359375 170.136719 41.78125 C 175.75 47.015625 181.265625 52.339844 186.878906 57.574219 C 187.066406 57.765625 187.351562 57.953125 187.734375 58.242188 C 190.207031 55.863281 192.585938 53.578125 194.960938 51.296875 C 199.8125 46.632812 204.664062 41.972656 209.417969 37.40625 C 214.363281 32.648438 219.40625 27.796875 224.351562 23.039062 C 227.964844 19.613281 231.578125 16.285156 235.191406 12.859375 C 237.664062 10.578125 240.996094 10.480469 243.65625 12.574219 C 244.132812 12.953125 244.515625 13.429688 244.988281 13.8125 C 263.628906 32.457031 282.367188 51.199219 301.007812 69.847656 C 301.105469 70.988281 301.675781 71.464844 302.625 72.320312 Z M 302.625 72.320312 " fill-opacity="1" fill-rule="nonzero"/></g><g clip-path="url(#82f1bed3e2)"><path fill="#9a2f28" d="M 189.445312 211.601562 C 187.734375 213.316406 186.308594 214.644531 185.070312 215.976562 C 183.832031 217.308594 182.597656 218.640625 181.359375 219.972656 C 172.992188 228.632812 164.621094 237.195312 156.253906 245.851562 C 152.257812 250.039062 148.167969 254.128906 144.078125 258.21875 C 143.222656 259.171875 142.367188 260.121094 141.511719 261.074219 C 139.132812 263.832031 135.992188 264.5 132.664062 264.117188 C 131.429688 264.023438 130.191406 263.453125 129.050781 262.882812 C 126.957031 261.835938 125.816406 260.121094 125.816406 257.648438 C 125.816406 224.636719 125.816406 191.625 125.816406 158.515625 C 125.816406 155.851562 125.628906 153.1875 125.914062 150.523438 C 126.484375 145.863281 127.625 141.390625 129.714844 137.109375 C 132.378906 131.496094 135.992188 126.550781 140.273438 122.078125 C 143.507812 118.746094 146.742188 115.417969 150.070312 112.277344 C 154.539062 108.1875 159.105469 104.191406 163.765625 100.292969 C 170.898438 94.390625 178.128906 88.683594 185.546875 82.785156 C 187.066406 84.023438 188.589844 85.164062 190.109375 86.402344 C 197.53125 92.394531 205.042969 98.292969 212.367188 104.382812 C 216.457031 107.808594 220.164062 111.613281 224.253906 115.039062 C 228.058594 118.273438 231.386719 121.886719 234.621094 125.691406 C 240.042969 131.972656 244.132812 139.011719 245.75 147.195312 C 246.128906 149 246.320312 150.808594 246.414062 152.617188 C 246.605469 168.3125 246.699219 183.917969 246.796875 199.613281 C 246.890625 218.738281 246.890625 237.859375 246.988281 256.886719 C 246.988281 260.027344 246.035156 261.453125 243.183594 262.597656 C 239.757812 264.023438 236.429688 263.738281 233.195312 261.835938 C 231.386719 260.789062 230.53125 259.265625 230.53125 257.171875 C 230.53125 242.710938 230.4375 228.25 230.34375 213.789062 C 230.246094 201.613281 230.058594 189.433594 229.867188 177.257812 C 229.773438 170.40625 229.582031 163.558594 229.582031 156.707031 C 229.582031 149.859375 227.585938 143.769531 223.96875 138.0625 C 220.261719 132.066406 215.21875 127.214844 210.085938 122.554688 C 203.046875 116.273438 195.4375 110.757812 187.828125 105.238281 C 187.636719 105.144531 187.449219 105.046875 187.066406 104.859375 C 185.449219 106 183.738281 107.140625 182.121094 108.28125 C 176.796875 112.375 171.375 116.371094 166.144531 120.652344 C 159.769531 125.976562 153.875 131.78125 149.59375 138.917969 C 147.121094 143.007812 145.410156 147.480469 144.933594 152.332031 C 144.742188 154.425781 144.554688 156.515625 144.554688 158.609375 C 144.363281 180.683594 144.171875 202.753906 143.984375 224.828125 C 143.984375 228.632812 143.699219 232.4375 143.507812 236.71875 C 154.730469 225.300781 165.574219 214.265625 176.699219 203.136719 C 175.84375 203.039062 175.273438 203.039062 174.703125 203.039062 C 171.566406 203.039062 168.425781 203.039062 165.382812 203.039062 C 162.53125 202.945312 160.4375 201.515625 159.582031 199.140625 C 158.441406 196 161.199219 192.480469 164.144531 192.289062 C 164.433594 192.289062 164.71875 192.289062 165.097656 192.289062 C 174.796875 192.289062 184.59375 192.289062 194.296875 192.289062 C 196.671875 192.289062 198.480469 193.144531 199.433594 195.332031 C 199.71875 196 199.90625 196.761719 199.90625 197.523438 C 199.90625 207.320312 199.8125 217.121094 200.003906 227.015625 C 200.003906 229.964844 197.433594 232.34375 194.960938 232.34375 C 192.109375 232.4375 189.445312 229.867188 189.445312 226.824219 C 189.351562 222.542969 189.445312 218.261719 189.445312 214.074219 C 189.445312 213.601562 189.445312 212.839844 189.445312 211.601562 Z M 189.445312 211.601562 " fill-opacity="1" fill-rule="nonzero"/></g><g fill="#323232" fill-opacity="1"><g transform="translate(0.000000000000042576, 348.698516)"><g><path d="M 38.171875 1.03125 C 28.253906 1.03125 20.894531 -1.320312 16.09375 -6.03125 C 11.300781 -10.738281 8.90625 -17.722656 8.90625 -26.984375 L 8.90625 -72 L 22.84375 -72 L 22.84375 -27.09375 C 22.84375 -21.832031 24.109375 -17.890625 26.640625 -15.265625 C 29.171875 -12.640625 33.015625 -11.328125 38.171875 -11.328125 C 48.378906 -11.328125 53.484375 -16.582031 53.484375 -27.09375 L 53.484375 -72 L 67.421875 -72 L 67.421875 -26.984375 C 67.421875 -17.722656 65.023438 -10.738281 60.234375 -6.03125 C 55.441406 -1.320312 48.085938 1.03125 38.171875 1.03125 Z M 38.171875 1.03125 "/></g></g></g><g fill="#323232" fill-opacity="1"><g transform="translate(76.33365, 348.698516)"><g><path d="M 37.1875 -72 C 42.332031 -72 46.734375 -71.054688 50.390625 -69.171875 C 54.054688 -67.285156 56.828125 -64.640625 58.703125 -61.234375 C 60.578125 -57.835938 61.515625 -53.890625 61.515625 -49.390625 C 61.515625 -44.898438 60.578125 -40.960938 58.703125 -37.578125 C 56.828125 -34.191406 54.054688 -31.554688 50.390625 -29.671875 C 46.734375 -27.785156 42.332031 -26.84375 37.1875 -26.84375 L 23.59375 -26.84375 L 23.59375 0 L 9.359375 0 L 9.359375 -72 Z M 35.3125 -38.125 C 43.21875 -38.125 47.171875 -41.878906 47.171875 -49.390625 C 47.171875 -56.941406 43.21875 -60.71875 35.3125 -60.71875 L 23.59375 -60.71875 L 23.59375 -38.125 Z M 35.3125 -38.125 "/></g></g></g><g fill="#323232" fill-opacity="1"><g transform="translate(142.128331, 348.698516)"><g><path d="M 22.40625 0 L 9.359375 0 L 9.359375 -72 L 27.96875 -72 L 46.1875 -19.0625 L 47.234375 -19.0625 L 65.359375 -72 L 83.53125 -72 L 83.53125 0 L 70.03125 0 L 70.03125 -47.578125 L 68.796875 -47.765625 L 52.15625 0 L 40.28125 0 L 23.640625 -47.765625 L 22.40625 -47.578125 Z M 22.40625 0 "/></g></g></g><g fill="#323232" fill-opacity="1"><g transform="translate(235.058418, 348.698516)"><g><path d="M 9.359375 0 L 9.359375 -72 L 38.265625 -72 C 45.710938 -72 51.332031 -70.28125 55.125 -66.84375 C 58.925781 -63.414062 60.828125 -58.679688 60.828125 -52.640625 C 60.828125 -48.273438 59.71875 -44.695312 57.5 -41.90625 C 55.28125 -39.113281 51.972656 -36.976562 47.578125 -35.5 L 47.578125 -34.46875 C 49.835938 -33.488281 51.664062 -32.03125 53.0625 -30.09375 C 54.457031 -28.15625 55.78125 -25.28125 57.03125 -21.46875 L 64.21875 0 L 49.59375 0 L 42.546875 -21.515625 C 41.828125 -23.679688 41.015625 -25.363281 40.109375 -26.5625 C 39.210938 -27.757812 38.066406 -28.628906 36.671875 -29.171875 C 35.273438 -29.710938 33.457031 -29.984375 31.21875 -29.984375 L 23.59375 -29.984375 L 23.59375 0 Z M 36.546875 -41.265625 C 43.441406 -41.265625 46.890625 -44.484375 46.890625 -50.921875 C 46.890625 -57.453125 43.441406 -60.71875 36.546875 -60.71875 L 23.59375 -60.71875 L 23.59375 -41.265625 Z M 36.546875 -41.265625 "/></g></g></g><g fill="#323232" fill-opacity="1"><g transform="translate(302.379798, 348.698516)"><g><path d="M 39.34375 1.03125 C 32.71875 1.03125 26.875 -0.34375 21.8125 -3.09375 C 16.757812 -5.851562 12.800781 -10 9.9375 -15.53125 C 7.082031 -21.0625 5.65625 -27.882812 5.65625 -36 C 5.65625 -44.113281 7.082031 -50.9375 9.9375 -56.46875 C 12.800781 -62 16.757812 -66.140625 21.8125 -68.890625 C 26.875 -71.648438 32.71875 -73.03125 39.34375 -73.03125 C 46.269531 -73.03125 52.15625 -71.675781 57 -68.96875 C 61.84375 -66.257812 65.300781 -62.128906 67.375 -56.578125 L 56.984375 -50.234375 L 55.75 -50.28125 C 54.207031 -54.019531 52.113281 -56.703125 49.46875 -58.328125 C 46.820312 -59.953125 43.445312 -60.765625 39.34375 -60.765625 C 33.375 -60.765625 28.710938 -58.785156 25.359375 -54.828125 C 22.015625 -50.878906 20.34375 -44.601562 20.34375 -36 C 20.34375 -27.425781 22.015625 -21.160156 25.359375 -17.203125 C 28.710938 -13.253906 33.375 -11.28125 39.34375 -11.28125 C 48.707031 -11.28125 54.4375 -15.828125 56.53125 -24.921875 L 57.765625 -24.921875 L 68.25 -19.453125 C 66.28125 -12.617188 62.914062 -7.492188 58.15625 -4.078125 C 53.394531 -0.671875 47.125 1.03125 39.34375 1.03125 Z M 39.34375 1.03125 "/></g></g></g></svg>